<?xml version="1.0" encoding="UTF-8"?>
<!DOCTYPE svg PUBLIC "-//W3C//DTD SVG 1.1//EN" "http://www.w3.org/Graphics/SVG/1.1/DTD/svg11.dtd">
<!-- Creator: CorelDRAW X6 -->
<svg xmlns="http://www.w3.org/2000/svg" xml:space="preserve" width="3.54166in" height="3.77778in" version="1.1" style="shape-rendering:geometricPrecision; text-rendering:geometricPrecision; image-rendering:optimizeQuality; fill-rule:evenodd; clip-rule:evenodd"
viewBox="0 0 3542 3778"
 xmlns:xlink="http://www.w3.org/1999/xlink">
 <defs>
  <style type="text/css">
   <![CDATA[
    .fil0 {fill:#C79F54;fill-rule:nonzero}
   ]]>
  </style>
 </defs>
 <g id="Layer_x0020_1">
  <metadata id="CorelCorpID_0Corel-Layer"/>
  <path class="fil0" d="M214 1142c-136,247 -214,530 -214,831 0,301 78,584 214,832l0 -1663z"/>
  <path class="fil0" d="M1777 226c-144,0 -284,17 -418,49l0 275c133,-37 273,-58 418,-58 832,0 1506,661 1506,1477 0,367 -137,703 -364,961l-43 151 -95 333c458,-309 762,-824 772,-1409l0 -56c-13,-954 -804,-1723 -1777,-1723z"/>
  <path class="fil0" d="M1359 2880l1393 0c231,-237 373,-558 373,-911 0,-729 -603,-1320 -1347,-1320 -146,0 -287,23 -418,65l0 2166z"/>
  <polygon class="fil0" points="1198,-13 184,-13 375,377 375,3387 184,3778 2511,3778 2722,3038 1198,3038 "/>
 </g>
</svg>
