<?xml version="1.0" encoding="UTF-8"?>
<!DOCTYPE svg PUBLIC "-//W3C//DTD SVG 1.1//EN" "http://www.w3.org/Graphics/SVG/1.1/DTD/svg11.dtd">
<!-- Creator: CorelDRAW X6 -->
<svg xmlns="http://www.w3.org/2000/svg" xml:space="preserve" width="2.68055in" height="2.68055in" version="1.1" style="shape-rendering:geometricPrecision; text-rendering:geometricPrecision; image-rendering:optimizeQuality; fill-rule:evenodd; clip-rule:evenodd"
viewBox="0 0 2681 2681"
 xmlns:xlink="http://www.w3.org/1999/xlink">
 <defs>
  <style type="text/css">
   <![CDATA[
    .str0 {stroke:#373435;stroke-width:12.4803}
    .str1 {stroke:#373435;stroke-width:24.9606}
    .fil2 {fill:none}
    .fil1 {fill:#373435}
    .fil3 {fill:#F8B444}
    .fil0 {fill:#FEFEFE}
    .fil4 {fill:#FEFEFE;fill-rule:nonzero}
   ]]>
  </style>
 </defs>
 <g id="Layer_x0020_1">
  <metadata id="CorelCorpID_0Corel-Layer"/>
  <polygon class="fil0" points="0,2681 2677,2681 2677,3 0,3 "/>
  <path class="fil1" d="M2344 2101c0,195 -159,354 -356,354l-1298 0c-196,0 -356,-158 -356,-354l0 -1468c0,-195 159,-354 356,-354l1298 0c197,0 356,158 356,354l0 1468z"/>
  <path class="fil2 str0" d="M2344 2101c0,195 -159,354 -356,354l-1298 0c-196,0 -356,-158 -356,-354l0 -1468c0,-195 159,-354 356,-354l1298 0c197,0 356,158 356,354l0 1468z"/>
  <path class="fil2 str0" d="M893 1406l166 -709 452 0c0,0 197,2 197,181 0,179 -191,191 -191,191l4 12c0,0 46,2 68,48 23,46 17,89 17,89 0,0 -12,175 21,187l125 -200 15 -2 35 208 230 0 -205 135 35 210 -187 -131 -241 127 110 -216 -106 -100c0,0 -48,-46 -44,-102 4,-56 10,-98 10,-98 0,0 -6,-85 -73,-85 -66,0 -162,0 -162,0l-68 256 -210 -2z"/>
  <path class="fil3" d="M2336 1697c0,195 -158,354 -353,354l-1288 0c-195,0 -353,-158 -353,-354l0 -1114c0,-195 158,-354 353,-354l1288 0c195,0 353,158 353,354l0 1114z"/>
  <path class="fil2 str1" d="M2336 1697c0,195 -158,354 -353,354l-1288 0c-195,0 -353,-158 -353,-354l0 -1114c0,-195 158,-354 353,-354l1288 0c195,0 353,158 353,354l0 1114z"/>
  <path class="fil4" d="M613 2321l39 -165 78 0c15,0 27,1 35,3 8,2 14,7 19,13 5,6 7,14 7,24 0,13 -5,25 -15,33 -10,9 -26,15 -49,17 7,4 12,9 15,13 8,10 14,20 19,30l15 31 -28 0 -14 -30c-5,-11 -10,-21 -16,-29 -4,-6 -8,-9 -13,-11 -4,-2 -11,-3 -21,-3l-29 0 -17 73 -25 0zm47 -91l34 0c16,0 26,0 31,0 9,-1 17,-3 23,-6 6,-3 11,-7 14,-12 3,-5 5,-10 5,-16 0,-5 -1,-9 -4,-13 -2,-4 -6,-6 -10,-7 -4,-1 -11,-2 -20,-2l-60 0 -13 56z"/>
  <path class="fil4" d="M813 2252c0,-29 10,-53 29,-71 19,-18 43,-27 70,-27 23,0 42,7 57,20 15,13 22,31 22,54 0,16 -4,31 -11,45 -6,10 -13,19 -21,27 -8,7 -17,13 -27,17 -13,5 -26,8 -41,8 -15,0 -29,-3 -41,-9 -12,-6 -22,-15 -28,-26 -6,-11 -10,-23 -10,-36zm25 1c0,10 2,19 7,27 5,8 11,14 20,19 9,5 19,7 29,7 10,0 19,-2 28,-6 9,-4 17,-10 23,-17 7,-7 12,-16 16,-26 4,-10 6,-21 6,-31 0,-16 -5,-29 -16,-39 -10,-10 -23,-15 -39,-15 -20,0 -37,7 -52,22 -15,15 -23,34 -23,59z"/>
  <path class="fil4" d="M1151 2263l25 3c-8,19 -19,34 -34,43 -15,10 -32,15 -50,15 -23,0 -41,-6 -54,-18 -13,-12 -20,-30 -20,-53 0,-30 10,-54 30,-74 18,-17 40,-26 67,-26 20,0 36,5 48,14 12,9 19,22 21,38l-23 2c-3,-12 -8,-21 -15,-27 -8,-6 -18,-9 -30,-9 -23,0 -42,9 -56,27 -12,15 -18,34 -18,55 0,17 5,30 14,39 9,9 22,13 37,13 13,0 25,-4 35,-11 11,-7 18,-18 23,-31z"/>
  <polygon class="fil4" points="1194,2321 1233,2157 1258,2157 1239,2236 1340,2157 1376,2157 1289,2224 1352,2321 1324,2321 1270,2238 1231,2268 1219,2321 "/>
  <path class="fil4" d="M1375 2268l25 -2 0 6c0,6 2,12 5,17 3,5 9,9 17,12 8,3 17,4 28,4 15,0 27,-3 35,-9 8,-6 12,-12 12,-20 0,-5 -2,-10 -6,-14 -4,-4 -16,-10 -35,-17 -15,-6 -25,-10 -30,-13 -8,-5 -15,-10 -19,-16 -4,-6 -6,-12 -6,-20 0,-8 3,-16 8,-23 5,-7 13,-12 23,-16 10,-4 22,-5 35,-5 15,0 28,2 39,7 11,4 18,10 23,18 5,7 7,15 7,21 0,1 0,2 -1,3l-24 2c0,-5 0,-8 -1,-11 -2,-5 -4,-8 -8,-12 -4,-3 -9,-6 -15,-8 -6,-2 -13,-3 -21,-3 -14,0 -24,3 -32,8 -6,4 -9,10 -9,16 0,4 1,8 4,11 2,3 7,6 13,9 4,2 15,6 32,13 14,5 23,9 28,12 7,4 12,9 16,14 4,6 6,12 6,19 0,9 -3,17 -9,25 -6,8 -15,13 -26,17 -11,4 -23,6 -38,6 -21,0 -39,-4 -52,-12 -13,-8 -20,-23 -20,-44z"/>
  <polygon class="fil4" points="1592,2321 1626,2175 1563,2175 1568,2157 1717,2157 1712,2175 1651,2175 1617,2321 "/>
  <path class="fil4" d="M1665 2321l105 -165 31 0 31 165 -24 0 -9 -48 -76 0 -30 48 -28 0zm69 -65l62 0 -7 -41c-3,-17 -5,-30 -5,-42 -4,10 -11,21 -19,34l-30 49z"/>
  <path class="fil4" d="M1858 2321l39 -165 78 0c15,0 27,1 35,3 8,2 14,7 19,13 5,6 7,14 7,24 0,13 -5,25 -15,33 -10,9 -26,15 -49,17 7,4 12,9 15,13 8,10 14,20 19,30l15 31 -28 0 -14 -30c-5,-11 -10,-21 -16,-29 -4,-6 -8,-9 -13,-11 -4,-2 -12,-3 -21,-3l-29 0 -17 73 -25 0zm47 -91l34 0c16,0 26,0 31,0 9,-1 17,-3 23,-6 6,-3 11,-7 14,-12 3,-5 5,-10 5,-16 0,-5 -1,-9 -4,-13 -2,-4 -6,-6 -10,-7 -4,-1 -11,-2 -20,-2l-61 0 -13 56z"/>
  <path class="fil1" d="M898 1406l166 -709 452 0c0,0 197,2 197,181 0,179 -187,204 -187,204l0 0c0,0 46,2 68,48 23,46 17,89 17,89 0,0 -10,182 23,194l-204 1c-23,-19 -34,-36 -31,-79 4,-56 10,-98 10,-98 0,0 -6,-85 -73,-85 -66,0 -162,0 -162,0l-68 256 -210 -2zm305 -408l220 0c0,0 85,-10 85,-89 0,-79 -81,-83 -81,-83l-183 0 -42 173z"/>
  <path class="fil2 str0" d="M898 1406l166 -709 452 0c0,0 197,2 197,181 0,179 -187,204 -187,204l0 0c0,0 46,2 68,48 23,46 17,89 17,89 0,0 -10,182 23,195l-204 1c-23,-19 -34,-36 -31,-79 4,-56 10,-98 10,-98 0,0 -6,-85 -73,-85 -66,0 -162,0 -162,0l-68 256 -210 -2zm305 -408l220 0c0,0 85,-10 85,-89 0,-79 -81,-83 -81,-83l-183 0 -42 173z"/>
  <polygon class="fil0" points="1558,1532 1462,1735 1679,1613 1861,1746 1820,1541 2012,1421 1796,1419 1761,1228 1635,1414 1437,1414 "/>
  <polygon class="fil2 str0" points="1558,1532 1462,1735 1679,1613 1861,1746 1820,1541 2012,1421 1796,1419 1761,1228 1635,1414 1437,1414 "/>
  <polygon class="fil2 str0" points="1549,1533 1448,1752 1678,1621 1869,1758 1827,1544 2043,1413 1803,1413 1765,1213 1632,1403 1419,1402 "/>
  <polygon class="fil2 str0" points="1540,1535 1432,1767 1679,1629 1879,1774 1837,1548 2067,1405 1809,1404 1768,1196 1626,1399 1424,1406 "/>
 </g>
</svg>
