<?xml version="1.0" encoding="iso-8859-1"?>
<!-- Generator: Adobe Illustrator 19.0.0, SVG Export Plug-In . SVG Version: 6.00 Build 0)  -->
<svg version="1.1" id="Capa_1" xmlns="http://www.w3.org/2000/svg" xmlns:xlink="http://www.w3.org/1999/xlink" x="0px" y="0px"
	 viewBox="0 0 512 512" style="enable-background:new 0 0 512 512;" xml:space="preserve">
<g>
	<g>
		<path d="M311.32,226.747h-23.001c-3.199,0-5.543,2.342-5.543,5.542v16.418c0,3.199,2.344,5.542,5.543,5.542h23.001
			c3.198,0,5.543-2.344,5.543-5.542v-16.418C316.863,229.089,314.519,226.747,311.32,226.747z M310.879,249.468
			c-24.917,0-23.32,0.454-23.32-1.197c-0.001-17.747-0.452-16.741,1.196-16.741h22.124c0.999,0,1.194,0.197,1.194,1.195
			C312.073,250.471,312.524,249.468,310.879,249.468z"/>
	</g>
</g>
<g>
	<g>
		<path d="M311.32,257.839h-23.001c-3.199,0-5.543,2.343-5.543,5.541v16.42c0,3.199,2.344,5.543,5.543,5.543h23.001
			c3.198,0,5.543-2.344,5.543-5.543v-16.42C316.863,260.182,314.519,257.839,311.32,257.839z M310.879,280.56
			c-24.933,0-23.32,0.452-23.32-1.197c-0.001-17.745-0.452-16.741,1.196-16.741c24.929,0,23.318-0.453,23.318,1.195
			C312.073,281.563,312.524,280.56,310.879,280.56z"/>
	</g>
</g>
<g>
	<g>
		<polygon points="74.698,226.747 74.698,247.077 54.368,226.747 49.584,226.747 49.584,254.25 54.368,254.25 54.368,233.324 
			75.295,254.25 79.481,254.25 79.481,226.747 		"/>
	</g>
</g>
<g>
	<g>
		<polygon points="126.12,226.747 126.12,247.077 105.789,226.747 101.007,226.747 101.007,254.25 105.789,254.25 105.789,233.324 
			126.717,254.25 130.902,254.25 130.902,226.747 		"/>
	</g>
</g>
<g>
	<g>
		<polygon points="232.551,226.747 232.551,247.077 212.219,226.747 207.437,226.747 207.437,254.25 212.219,254.25 
			212.219,233.324 233.148,254.25 237.333,254.25 237.333,226.747 		"/>
	</g>
</g>
<g>
	<g>
		<rect x="87.855" y="226.744" width="4.783" height="27.504"/>
	</g>
</g>
<g>
	<g>
		<polygon points="136.882,226.747 136.882,231.53 149.437,231.53 149.437,254.25 154.819,254.25 154.819,231.53 167.375,231.53 
			167.375,226.747 		"/>
	</g>
</g>
<g>
	<g>
		<polygon points="199.664,231.53 199.664,226.747 172.757,226.747 172.757,254.25 199.664,254.25 199.664,249.468 178.138,249.468 
			178.138,242.293 194.881,242.293 194.881,237.508 178.138,237.508 178.138,231.53 		"/>
	</g>
</g>
<g>
	<g>
		<path d="M268.426,226.747h-22.723v27.504h22.723c5.283,0,9.566-6.158,9.566-13.752
			C277.992,232.905,273.71,226.747,268.426,226.747z M266.828,249.469h-16.34V231.53h16.34c3.523,0,6.38,4.018,6.38,8.97
			C273.209,245.45,270.351,249.469,266.828,249.469z"/>
	</g>
</g>
<g>
	<g>
		<path d="M360.506,227.247h-35.072c-0.829,0-1.5,0.671-1.5,1.5v54.596c0,0.829,0.671,1.5,1.5,1.5h35.072
			c26.282,0,41.355-10.497,41.355-28.799C401.86,238.012,386.4,227.247,360.506,227.247z M352.541,278.07h-10.474v-44.051h10.474
			c22.111,0,29.99,11.378,29.99,22.026C382.531,269.836,371.32,278.07,352.541,278.07z"/>
	</g>
</g>
<g>
	<g>
		<path d="M459.85,262.276c-6.784-8.268-25.612-12.317-30.606-14.775c-2.319-1.138-7.563-3.816-7.765-6.469
			c-0.206-2.304-0.186-3.821,4.221-5.702c7.969-3.369,19.213-0.78,26.399,0.703c4.377,0.903,3.616,0.11,3.645-5.996
			c0.006-1.584-1.441-1.477-4.301-2.041c-14.864-2.938-46.757-2.119-46.757,13.689c0,2.759,0.982,5.536,3.026,7.269
			c12.939,10.993,36.041,13.603,36.041,21.072c0,8.408-9.374,8.258-17.679,7.878c-6.527-0.288-11.321-1.237-19.594-3.255
			c-0.451-0.111-0.928-0.005-1.292,0.285c-0.363,0.29-0.571,0.732-0.564,1.197c0.011,0.651,0.025,1.26,0.039,1.888
			c0.079,3.436-0.266,5.023,1.374,5.232c15.26,1.948,44.331,5.073,53.483-7.111C463.84,270.371,461.194,263.941,459.85,262.276z"/>
	</g>
</g>
<g>
	<g>
		<path d="M492.498,155.046H273.501c-4.142,0-7.5,3.358-7.5,7.5c0,4.142,3.358,7.5,7.5,7.5h218.998c2.481,0,4.5,2.018,4.5,4.5
			v67.063c0,4.142,3.358,7.5,7.5,7.5c4.142,0,7.5-3.358,7.499-7.5v-67.063C511.999,163.794,503.25,155.046,492.498,155.046z"/>
	</g>
</g>
<g>
	<g>
		<path d="M504.5,269.112c-4.142,0-7.5,3.358-7.5,7.5v60.839c0,2.481-2.019,4.5-4.5,4.5H19.501c-2.481,0-4.5-2.019-4.5-4.5V174.548
			c0-2.482,2.019-4.5,4.5-4.5h218.997c4.142,0,7.5-3.358,7.5-7.5c0-4.142-3.358-7.5-7.5-7.5H19.501
			C8.749,155.046,0,163.794,0,174.548v162.905c0,10.753,8.749,19.501,19.501,19.501h472.998c10.753,0,19.501-8.749,19.501-19.502
			v-60.839C512,272.471,508.642,269.112,504.5,269.112z"/>
	</g>
</g>
<g>
</g>
<g>
</g>
<g>
</g>
<g>
</g>
<g>
</g>
<g>
</g>
<g>
</g>
<g>
</g>
<g>
</g>
<g>
</g>
<g>
</g>
<g>
</g>
<g>
</g>
<g>
</g>
<g>
</g>
</svg>
