<?xml version="1.0" encoding="iso-8859-1"?>
<!-- Generator: Adobe Illustrator 19.0.0, SVG Export Plug-In . SVG Version: 6.00 Build 0)  -->
<svg version="1.1" id="Capa_1" xmlns="http://www.w3.org/2000/svg" xmlns:xlink="http://www.w3.org/1999/xlink" x="0px" y="0px"
	 viewBox="0 0 512 512" style="enable-background:new 0 0 512 512;" xml:space="preserve">
<g>
	<g>
		<path d="M308.674,216.853c-1.046-1.046,1.736-0.733-48.736-0.731c-14.031,0-22.747,8.31-22.747,21.686v36.401
			c0,7.668-3.902,12.247-10.438,12.247h-40.885c-1.381,0-2.5,1.119-2.5,2.5v4.423c0,1.381,1.119,2.5,2.5,2.5h46.48
			c14.03,0,22.745-8.299,22.745-21.657v-36.428c0-7.679,3.9-12.265,10.433-12.265h41.38c1.381,0,2.5-1.119,2.5-2.5
			C309.406,218.755,309.674,217.852,308.674,216.853z"/>
	</g>
</g>
<g>
	<g>
		<path d="M165.83,216.128c-97.954-0.006-92.365-0.352-93.443,0.726c-1,1-0.732,1.902-0.732,6.18c0,1.38,1.119,2.5,2.5,2.5h86.087
			c6.535,0,10.438,4.583,10.438,12.261c0,7.669-3.901,12.249-10.438,12.249H91.004c-11.031,0-19.349,9.252-19.349,21.518v21.809
			c0,1.381,1.119,2.5,2.5,2.5h12.894c1.381,0,2.5-1.119,2.5-2.5v-21.809c0-7.236,3.982-12.099,9.91-12.099h66.372
			c14.031,0,22.747-8.297,22.747-21.651C188.577,224.437,179.861,216.128,165.83,216.128z"/>
	</g>
</g>
<g>
	<g>
		<path d="M418.872,216.128c-97.862-0.006-92.375-0.353-93.454,0.726c-0.999,1-0.732,1.897-0.732,6.18c0,1.38,1.119,2.5,2.5,2.5
			h86.095c6.534,0,10.436,4.583,10.436,12.261c0,7.669-3.901,12.249-10.436,12.249l-86.095,0.007c-1.381,0-2.5,1.119-2.5,2.5v4.412
			c0,1.381,1.119,2.5,2.5,2.5h86.08c8.033,0.064,10.345,6.717,10.458,14.717c0,7.693-3.901,12.288-10.438,12.288h-86.1
			c-1.381,0-2.5,1.119-2.5,2.5c0,4.275-0.268,5.179,0.732,6.178c1.075,1.076-4.766,0.733,93.454,0.729
			c13.545,0,22.752-8.299,22.752-22.63c0-12.701-6.402-17.676-7.153-18.676C447.216,242.767,443.878,216.128,418.872,216.128z"/>
	</g>
</g>
<g>
	<g>
		<path d="M492.498,155.046H273.501c-4.142,0-7.5,3.358-7.5,7.5c0,4.142,3.358,7.5,7.5,7.5h218.998c2.481,0,4.5,2.019,4.5,4.5
			v67.063c0,4.142,3.358,7.5,7.5,7.5c4.142,0,7.5-3.358,7.499-7.5v-67.063C511.999,163.795,503.25,155.046,492.498,155.046z"/>
	</g>
</g>
<g>
	<g>
		<path d="M504.5,269.112c-4.142,0-7.5,3.358-7.5,7.5v60.839c0,2.482-2.019,4.5-4.5,4.5H19.501c-2.481,0-4.5-2.018-4.5-4.5V174.548
			c0-2.481,2.019-4.5,4.5-4.5h218.997c4.142,0,7.5-3.358,7.5-7.5c0-4.142-3.358-7.5-7.5-7.5H19.501
			C8.749,155.046,0,163.795,0,174.548v162.905c0,10.754,8.749,19.501,19.501,19.501h472.998c10.753,0,19.501-8.749,19.501-19.502
			v-60.839C512,272.471,508.642,269.112,504.5,269.112z"/>
	</g>
</g>
<g>
</g>
<g>
</g>
<g>
</g>
<g>
</g>
<g>
</g>
<g>
</g>
<g>
</g>
<g>
</g>
<g>
</g>
<g>
</g>
<g>
</g>
<g>
</g>
<g>
</g>
<g>
</g>
<g>
</g>
</svg>
