<?xml version="1.0" encoding="iso-8859-1"?>
<!-- Generator: Adobe Illustrator 19.0.0, SVG Export Plug-In . SVG Version: 6.00 Build 0)  -->
<svg version="1.1" id="Capa_1" xmlns="http://www.w3.org/2000/svg" xmlns:xlink="http://www.w3.org/1999/xlink" x="0px" y="0px"
	 viewBox="0 0 512 512" style="enable-background:new 0 0 512 512;" xml:space="preserve">
<g>
	<g>
		<rect x="217.94" y="232.5" width="30" height="97"/>
	</g>
</g>
<g>
	<g>
		<circle cx="232.94" cy="200" r="17.5"/>
	</g>
</g>
<g>
	<g>
		<rect x="271.22" y="232.5" width="30" height="97"/>
	</g>
</g>
<g>
	<g>
		<circle cx="286.22" cy="200" r="17.5"/>
	</g>
</g>
<g>
	<g>
		<path d="M166.537,182.5l-22.464,109.146l-18.058-86.775c-2.654-12.963-14.19-22.372-27.432-22.372s-24.777,9.409-27.422,22.324
			l-18.067,86.822L30.629,182.5H0l25.652,124.629c2.654,12.963,14.19,22.371,27.432,22.371s24.777-9.408,27.422-22.324
			l18.078-86.874l18.068,86.827c2.654,12.963,14.19,22.371,27.432,22.371s24.777-9.408,27.429-22.356L197.167,182.5H166.537z"/>
	</g>
</g>
<g>
	<g>
		<path d="M482,182.5h-12.5V247c0,28.949-23.552,52.5-52.5,52.5s-52.5-23.551-52.5-52.5v-64.5H352c-16.5,0-30,13.5-30,30v87
			c0,16.5,13.5,30,30,30h130c16.5,0,30-13.5,30-30v-87C512,196,498.5,182.5,482,182.5z"/>
	</g>
</g>
<g>
	<g>
		<path d="M394.5,182.5V247c0,12.407,10.094,22.5,22.5,22.5s22.5-10.093,22.5-22.5v-64.5H394.5z"/>
	</g>
</g>
<g>
</g>
<g>
</g>
<g>
</g>
<g>
</g>
<g>
</g>
<g>
</g>
<g>
</g>
<g>
</g>
<g>
</g>
<g>
</g>
<g>
</g>
<g>
</g>
<g>
</g>
<g>
</g>
<g>
</g>
</svg>
